# xmcd
#
# Track frame offsets: 
#        150
#        29417
#        48037
#        63817
#        79280
#        93875
#        108405
#        128270
#        143292
#        161637
#        175322
#        193377
#        206812
#        220895
#
# Disc length: 3207 seconds
#
# Revision: 3
# Processed by: cddbd v1.4PL0 Copyright (c) Steve Scherf et al.
# Submitted via: ExactAudioCopy v0.95a3
#
DISCID=ba0c850e
DTITLE=Various Artist - Hot Hits Country - Dancin' (Vol. 1)
DYEAR=1900
DGENRE=Country
TTITLE0=Brooks and Dunn - Boot Scootin Boogie (Dance Mix)
TTITLE1=Alan Jackson - Chattahoochie - (Dance Mix)
TTITLE2=Bellamy Brothers - Cowboy Beat
TTITLE3=Billy Ray Cyrus - Achy Breaky Heart
TTITLE4=Travis Tritt - T-R-O-U-B-L-E (Dance Mix)
TTITLE5=Vince Gill - One More Last Chance (Dance Mix)
TTITLE6=Confederate Railroad - Trashy Women (Dance Mix)
TTITLE7=George Strait - All My Ex's Live In Texas
TTITLE8=Ricky Van Shelton - Wild Man (Dance Mix)
TTITLE9=John Anderson - Money In the Bank
TTITLE10=Shenandoah - Janie Baker's Love Slave (Dance Mix)
TTITLE11=Mark Chesnutt - It Sure Is Monday
TTITLE12=Reba McEntire - Oklahoma Swing (ft. Vince Gill)
TTITLE13=Mary Chapin Carpenter - Down At The Twist and Shout (Dance Mix
TTITLE13=)
EXTD=
EXTT0=
EXTT1=
EXTT2=
EXTT3=
EXTT4=
EXTT5=
EXTT6=
EXTT7=
EXTT8=
EXTT9=
EXTT10=
EXTT11=
EXTT12=
EXTT13=
PLAYORDER=
